<?xml version="1.0" encoding="utf-8"?>
<svg id="svg2" version="1.1" viewBox="0 0 7 8" xmlns="https://www.w3.org/2000/svg">
  <g id="layer1" style="display:inline" transform="translate(0,-1045.3622)">
    <g style="display:inline" id="layer1-0" transform="matrix(0.77393739,0,0,0.77393739,-0.80878462,233.54106)">
      <g transform="translate(-8.2201167,-12.904699)" id="g8159" style="display:inline"/>
    </g>
    <g style="display:inline" id="g3241" transform="translate(0.00462094,9.0477357)">
      <rect ry="2.28125" rx="2.28125" y="1036.3422" x="-0.000972668" height="6.9743714" width="7.0143785" id="rect3884" style="display:inline;opacity:1;fill:#4298b8;fill-opacity:1;stroke:none;stroke-width:1.10000002;stroke-linejoin:miter;stroke-miterlimit:4;stroke-dasharray:none;stroke-dashoffset:0;stroke-opacity:1"/>
      <path d="m 3.496977,1040.3467 0,-1.0098 2.5066561,0 c 0,0 0,1.3202 0,2.0267 0,0.7065 -0.8124917,0.8644 -1.0690747,0.9039 -0.3552416,0.055 -0.8729109,0.071 -1.3455868,0.071 -0.5819268,0 -1.0568324,-0.097 -1.4247172,-0.2896 -0.3656551,-0.193 -0.6499296,-0.5701 -0.8528236,-0.9518 -0.2006644,-0.3819 -0.3009965,-0.82 -0.3009965,-1.3146 0,-0.5206 0.1103653,-0.9728 0.3310961,-1.3568 0.2207309,-0.3861 0.5440235,-0.6633 0.9698778,-0.8629 0.3322112,-0.154 0.7792467,-0.231 1.3411072,-0.231 0.5417931,0 0.946467,0.049 1.2140192,0.1432 0.2697816,0.095 0.4927419,0.244 0.6688808,0.4457 0.1783683,0.1995 0.3765338,0.5236 0.4657184,0.8316 l -0.9984221,-0.01 c -0.099935,-0.335 -0.9335438,-0.4081 -1.3836404,-0.4081 -0.3322117,0 -0.9494139,-0.039 -1.2667871,0.2524 -0.3102829,0.2844 -0.3531529,0.7265 -0.3531529,1.2124 0,0.5163 0.05745,0.9674 0.3835893,1.2625 0.3531537,0.3196 1.0449504,0.2771 1.4016871,0.2771 0.59323,0 1.2242851,-0.01 1.2242851,-0.3524 0,-0.3722 0.00781,-0.6453 0.00781,-0.6453 l -1.5195283,0 z" style="font-style:normal;font-variant:normal;font-weight:normal;font-stretch:normal;font-size:8.8104887px;line-height:125%;font-family:'Arial Black';-inkscape-font-specification:'Arial Black, ';letter-spacing:0px;word-spacing:0px;display:inline;fill:#ffffff;fill-opacity:1;stroke:none;stroke-width:1px;stroke-linecap:butt;stroke-linejoin:miter;stroke-opacity:1" id="path3320"/>
    </g>
  </g>
</svg>