<?xml version="1.0" encoding="utf-8"?>
<svg contentscripttype="text/ecmascript" zoomAndPan="magnify" contentstyletype="text/css" version="1.1" preserveAspectRatio="xMidYMid meet" viewBox="0 0 16 16" xmlns="https://www.w3.org/2000/svg" xmlns:bx="https://boxy-svg.com">
  <defs id="defs4">
    <linearGradient gradientUnits="userSpaceOnUse" y2="296.62561" x2="2.2143626" y1="293.91281" x1="2.2143626" id="linearGradient4754">
      <stop id="stop4748" offset="0" style="stop-color:#b6e05f;stop-opacity:1;"/>
      <stop style="stop-color:#95c336;stop-opacity:1;" offset="0.8173" id="stop4756"/>
      <stop id="stop4750" offset="1" style="stop-color:#72a015;stop-opacity:1"/>
    </linearGradient>
    <linearGradient gradientUnits="userSpaceOnUse" y2="296.77466" x2="2.0968819" y1="293.96393" x1="2.0968819" id="linearGradient4508">
      <stop id="stop4502" offset="0" style="stop-color:#b6e05f;stop-opacity:1;"/>
      <stop style="stop-color:#b5dc66;stop-opacity:0.99215686" offset="0.6503" id="stop4510"/>
      <stop id="stop4504" offset="1" style="stop-color:#86ad34;stop-opacity:0.99215686"/>
    </linearGradient>
    <linearGradient y2="293.2901" x2="2.0947847" y1="294.98767" x1="2.1178565" gradientTransform="translate(0.39402486,1.2783372)" gradientUnits="userSpaceOnUse" id="linearGradient5017">
      <stop style="stop-color:#e2f2c0;stop-opacity:0" offset="0" id="stop4977"/>
      <stop id="stop4983" offset="0.4967" style="stop-color:#ebf6d4;stop-opacity:0.72941176;"/>
      <stop style="stop-color:#fffffd;stop-opacity:0.51" offset="1" id="stop4979"/>
    </linearGradient>
    <filter height="1.2115999" y="-0.1058" width="1.1091347" x="-0.054567333" id="filter4840" style="color-interpolation-filters:sRGB">
      <feGaussianBlur id="feGaussianBlur4842" stdDeviation="0.070570378"/>
    </filter>
    <linearGradient gradientUnits="userSpaceOnUse" y2="281.01208" x2="2.822794" y1="281.01208" x1="0.8125456" id="linearGradient4885">
      <stop id="stop4879" offset="0" style="stop-color:#485926;stop-opacity:1;"/>
      <stop id="stop4881" offset="1" style="stop-color:#485926;stop-opacity:1"/>
    </linearGradient>
    <linearGradient y2="280.00299" x2="1.8617994" y1="282.08536" x1="1.854663" gradientUnits="userSpaceOnUse" id="linearGradient4887">
      <stop style="stop-color:#485926;stop-opacity:1;" offset="0" id="stop4889"/>
      <stop id="stop4895" offset="0.8089" style="stop-color:#485926;stop-opacity:1;"/>
      <stop style="stop-color:#859d57;stop-opacity:1" offset="1" id="stop4891"/>
    </linearGradient>
    <filter height="1.0336" y="-0.016799999" width="1.0336" x="-0.016799999" id="filter4973" style="color-interpolation-filters:sRGB">
      <feGaussianBlur id="feGaussianBlur4975" stdDeviation="0.025949074"/>
    </filter>
    <linearGradient gradientUnits="userSpaceOnUse" y2="296.35071" x2="3.575458" y1="293.5274" x1="0.50927889" id="linearGradient4546">
      <stop id="stop4540" offset="0" style="stop-color:#57ab81;stop-opacity:1"/>
      <stop id="stop4542" offset="1" style="stop-color:#1f2915;stop-opacity:1"/>
    </linearGradient>
  </defs>
  <g id="icon" style="display:inline" transform="translate(0,-1036.3622)">
    <g id="g4193" style="display:inline" transform="matrix(0.917316, 0, 0, 0.903957, -2.09819, 97.598923)" bx:origin="0 0.476">
      <title>Groovy</title>
      <path id="path3817" style="font-style:normal;font-variant:normal;font-weight:bold;font-stretch:normal;font-size:15.56941891px;line-height:125%;font-family:Arial;letter-spacing:0px;word-spacing:0px;display:inline;fill:#ffffff;fill-opacity:1;stroke:none" d="M 10.991 1048.69 C 10.891 1048.69 10.889 1048.536 10.889 1048.369 C 10.889 1048.202 10.891 1048.027 10.799 1048.001 C 10.397 1047.884 10.251 1048.032 9.885 1048.28 C 9.424 1048.591 8.882 1048.706 8.322 1048.706 C 7.178 1048.706 6.594 1048.334 5.912 1047.589 C 5.234 1046.844 4.896 1046.062 4.896 1044.745 C 4.896 1043.411 5.237 1042.75 5.919 1042.01 C 6.602 1041.265 7.195 1040.892 8.359 1040.892 C 9.311 1040.892 10.067 1041.105 10.627 1041.531 C 11.191 1041.952 11.659 1042.519 11.904 1043.386 L 9.802 1043.422 C 9.512 1043.023 9.576 1043.104 9.331 1042.891 C 9.09 1042.678 8.776 1042.572 8.388 1042.572 C 7.873 1042.572 7.564 1042.814 7.292 1043.143 C 7.123 1043.347 6.913 1043.951 6.913 1044.813 C 6.913 1045.771 6.982 1046.141 7.291 1046.536 C 7.657 1046.918 7.896 1046.987 9.084 1046.987 C 9.594 1046.903 9.902 1046.632 9.902 1046.092 C 9.902 1045.176 8.903 1045.387 8.903 1045.308 C 8.903 1044.981 8.915 1044.75 8.915 1044.346 L 11.901 1044.336 C 11.901 1045.52 11.883 1047.595 11.883 1048.697"/>
      <g style="font-style:normal;font-weight:normal;font-size:13.58917427px;line-height:125%;font-family:Sans;letter-spacing:0px;word-spacing:0px;display:inline;fill:#ffffff;fill-opacity:1;stroke:none;stroke-width:1px;stroke-linecap:butt;stroke-linejoin:miter;stroke-opacity:1" transform="matrix(3.0333535,0,0,3.0403766,1.8624667,148.10686)" id="layer1-6">
        <path d="" cx="2.1166666" cy="294.88333" r="1.9766078" id="path4498" style="opacity:1;fill:url(#linearGradient4754);fill-opacity:1;stroke:#719181;stroke-width:0.26458332;stroke-linejoin:miter;stroke-miterlimit:4;stroke-dasharray:none;stroke-dashoffset:0;stroke-opacity:0.96819787"/>
        <circle r="1.9766078" cy="294.88333" cx="2.1166666" id="path4498-6-3" style="opacity:1;fill:url(#linearGradient4508);fill-opacity:1;stroke:none;stroke-width:0.26458332;stroke-linejoin:miter;stroke-miterlimit:4;stroke-dasharray:none;stroke-dashoffset:0;stroke-opacity:0.96819787"/>
        <g transform="matrix(1.0136213,0,0,0.75566038,-0.41430228,70.727462)" id="g4583">
          <path id="path4534" d="m 4.0048093,295.04107 a 1.5519258,0.80042017 0 0 1 -1.5519258,0.80042 1.5519258,0.80042017 0 0 1 -1.5519258,-0.80042 1.5519258,0.80042017 0 0 1 1.5519258,-0.80042 1.5519258,0.80042017 0 0 1 1.5519258,0.80042 z" style="opacity:1;fill:url(#linearGradient5017);fill-opacity:1;stroke:none;stroke-width:0.26458332;stroke-linejoin:miter;stroke-miterlimit:4;stroke-dasharray:none;stroke-dashoffset:0;stroke-opacity:0.96819787;filter:url(#filter4840)"/>
          <path id="path5013" d="m 2.4888001,293.95499 c -0.1468282,0.0109 -0.3507561,0.10942 -0.4567987,0.15318 -0.1060425,0.0438 -0.5383698,0.21884 -0.6036268,0.27355 -0.065257,0.0547 -0.342599,0.37202 -0.3915417,0.43767 -0.0489427,0.0657 -0.23655642,0.45955 -0.23655642,0.45955 0,0 -0.0897283,0.19695 0.0489427,0.31731 0.13867102,0.12036 0.0815712,0.0657 0.43232732,0.21883 0.3507561,0.15319 1.0277969,0.19695 1.3296103,0.18601 0.3018134,-0.0109 0.546527,0 0.7749263,-0.0875 0.2283993,-0.0875 0.5628412,-0.10942 0.6770409,-0.24072 0.1141996,-0.1313 0.1957708,-0.12036 0.1468281,-0.22978 -0.048943,-0.10941 -0.203928,-0.31731 -0.3099705,-0.5252 C 3.7939391,294.71 3.6797394,294.58964 3.5736969,294.46928 3.4676543,294.34892 3.2637263,294.2395 3.1413696,294.17385 3.0190128,294.10815 2.6356282,294.06444 2.6356282,294.06444 Z" style="fill:none;fill-rule:evenodd;stroke:none;stroke-width:0.30231613px;stroke-linecap:butt;stroke-linejoin:miter;stroke-opacity:1"/>
        </g>
        <g transform="matrix(1.1190605,0,0,1.0256871,0.12195315,-7.2555912)" id="text4743" style="font-style:normal;font-variant:normal;font-weight:bold;font-stretch:normal;font-size:3.92729139px;line-height:125%;font-family:'Courier New';-inkscape-font-specification:'Courier New Bold';text-align:start;letter-spacing:0px;word-spacing:0px;writing-mode:lr-tb;text-anchor:start;opacity:1;fill:#485926;fill-opacity:1;stroke:none;stroke-width:0.09818228px;stroke-linecap:butt;stroke-linejoin:miter;stroke-opacity:1" aria-label="G">
          <g id="text4538" style="font-style:normal;font-variant:normal;font-weight:bold;font-stretch:normal;font-size:2.97900772px;line-height:125%;font-family:Exo;-inkscape-font-specification:'Exo, Bold';text-align:start;letter-spacing:0px;word-spacing:0px;writing-mode:lr-tb;text-anchor:start;fill:url(#linearGradient4885);fill-opacity:1;stroke:none;stroke-width:0.07447519px;stroke-linecap:butt;stroke-linejoin:miter;stroke-opacity:1" transform="scale(0.9539275,1.0482977)" aria-label="G">
            <path id="path4876" style="font-style:normal;font-variant:normal;font-weight:bold;font-stretch:normal;font-family:'Liberation Sans';-inkscape-font-specification:'Liberation Sans Bold';fill:url(#linearGradient4887);fill-opacity:1;stroke-width:0.07447519px" d="m 1.8627622,281.76874 c 0.062063,0 0.121701,-0.005 0.178915,-0.0145 0.057214,-0.01 0.1100642,-0.0223 0.1585507,-0.0378 0.049456,-0.0165 0.093579,-0.0349 0.132368,-0.0553 0.039759,-0.0213 0.072245,-0.0432 0.097458,-0.0655 v -0.43623 H 2.0207743 v -0.3069 h 0.7801788 v 0.87478 c -0.046547,0.0475 -0.08095,0.0931 -0.146892,0.13673 -0.065941,0.0427 -0.1401256,0.0805 -0.2225528,0.11346 -0.082427,0.032 -0.1726118,0.0577 -0.2705544,0.0771 -0.096973,0.0194 -0.2002491,0.0291 -0.3098285,0.0291 -0.1813393,0 -0.3589677,-0.0262 -0.4898811,-0.0785 -0.1309135,-0.0533 -0.2385534,-0.12703 -0.3229198,-0.2211 -0.0843664,-0.095 -0.14691392,-0.22456 -0.18764255,-0.3545 -0.0397589,-0.12995 -0.0596383,-0.27201 -0.0596383,-0.4262 0,-0.16001 0.021334,-0.3258 0.0640021,-0.45477 0.0426681,-0.12897 0.10715503,-0.23855 0.19346085,-0.32874 0.087276,-0.0912 0.1963702,-0.16097 0.3272836,-0.20946 0.1318831,-0.0495 0.3080569,-0.0742 0.4855174,-0.0742 0.1289739,0 0.243402,0.0126 0.3432841,0.0378 0.1008518,0.0252 0.1886123,0.0611 0.2632814,0.10764 0.075639,0.0465 0.1386713,0.10278 0.1890972,0.16873 0.051395,0.065 0.090383,0.0997 0.1408358,0.29671 l -0.4683168,1.1e-4 c -0.050384,-0.12825 -0.060698,-0.14086 -0.1248981,-0.20456 -0.042668,-0.0291 -0.092786,-0.0513 -0.1498232,-0.0684 -0.056428,-0.0169 -0.120731,-0.0262 -0.1934609,-0.0262 -0.1066702,0 -0.2202965,0.017 -0.2978748,0.0509 -0.077578,0.033 -0.1415805,0.0805 -0.1920064,0.14255 -0.050426,0.0621 -0.087761,0.15804 -0.1120037,0.24531 -0.024243,0.0863 -0.036365,0.20884 -0.036365,0.31648 0,0.10667 0.012122,0.2257 0.036365,0.31491 0.025213,0.0892 0.063033,0.18286 0.1134583,0.24686 0.051396,0.064 0.115883,0.11394 0.193461,0.14983 0.077578,0.0359 0.1907197,0.0538 0.2964202,0.0538 z"/>
          </g>
        </g>
        <circle r="1.8535053" cy="294.89645" cx="2.1298008" id="path4498-6-2" style="opacity:1;fill:none;fill-opacity:1;stroke:#a9dc42;stroke-width:0.24810514;stroke-linejoin:miter;stroke-miterlimit:4;stroke-dasharray:none;stroke-dashoffset:0;stroke-opacity:1;filter:url(#filter4973)"/>
        <circle r="1.9766078" cy="294.88333" cx="2.1166666" id="path4498-6" style="opacity:1;fill:none;fill-opacity:1;stroke:url(#linearGradient4546);stroke-width:0.32476294;stroke-linejoin:miter;stroke-miterlimit:4;stroke-dasharray:none;stroke-dashoffset:0;stroke-opacity:0.96819787"/>
      </g>
    </g>
    <ellipse style="fill: rgb(216, 216, 216);" transform="matrix(-0.636432, 0.77134, -0.771341, -0.636425, 25.582495, 1036.772115)" cx="12.535" cy="7.603" rx="1.236" ry="1.236"/>
    <path style="opacity: 1; fill-opacity: 1; stroke: none; stroke-width: 0.265; stroke-linecap: round; stroke-linejoin: round; stroke-miterlimit: 4; stroke-dasharray: none; stroke-dashoffset: 0; stroke-opacity: 1; paint-order: normal; fill: rgb(16, 16, 16);" d="M 11.003 1040.457 C 10.534 1040.75 10.866 1040.606 10.458 1041.077 L 10.339 1041.465 C 10.339 1041.667 10.422 1042.067 10.467 1042.217 C 10.512 1042.367 10.584 1042.263 10.584 1042.606 L 10.87 1043.154 C 10.87 1043.225 10.873 1043.241 10.873 1043.351 L 10.466 1043.357 L 8.855 1043.368 C 8.53 1043.371 8.096 1043.526 8.018 1043.974 C 7.937 1044.429 8.009 1044.935 8.009 1044.935 C 8.009 1044.935 8.058 1045.298 8.291 1045.334 C 8.53 1045.376 8.627 1045.366 8.804 1045.288 C 8.982 1045.211 9.007 1045.062 9.007 1044.746 C 8.99 1044.57 9.001 1044.379 9.001 1044.379 L 10.1 1044.379 C 10.098 1044.402 10.026 1044.587 10.021 1044.605 C 9.75 1045.154 9.622 1045.3 9.29 1045.692 C 8.866 1046.249 8.845 1047.062 8.845 1047.062 C 8.845 1047.062 8.849 1048.446 8.809 1048.718 C 8.767 1048.992 8.503 1048.983 8.022 1049.025 C 7.707 1049.025 7.472 1049.062 7.051 1049.064 C 6.697 1049.066 6.657 1049.077 6.163 1049.28 C 5.597 1049.513 5.071 1050.313 5.014 1050.49 C 4.953 1050.668 5.093 1051.302 5.326 1051.344 C 5.564 1051.382 5.736 1051.088 5.932 1050.754 C 6.129 1050.42 6.581 1050.359 6.581 1050.359 C 6.581 1050.359 8.466 1050.42 9.252 1050.359 C 10.037 1050.301 10.021 1049.894 10.021 1049.549 C 10.021 1049.208 10.002 1048.914 10.002 1048.914 C 10.002 1048.704 10.037 1048.423 10.247 1048.427 C 10.5 1048.427 10.659 1048.434 10.904 1048.434 C 11.355 1048.434 11.514 1048.404 12.163 1048.623 C 12.776 1048.858 12.566 1049.401 12.566 1050.085 C 12.566 1050.773 13.007 1051.86 13.007 1051.86 C 13.007 1052.215 13.316 1052.352 13.316 1052.352 C 13.316 1052.352 15.603 1052.37 15.724 1052.358 C 15.84 1052.347 15.972 1052.237 15.972 1052.147 C 15.972 1052.055 15.979 1051.795 15.968 1051.599 C 15.935 1051.461 15.85 1051.37 15.597 1051.351 C 15.308 1051.348 14.45 1051.344 14.22 1051.355 C 13.985 1051.37 14.005 1051.081 14.005 1051.081 C 14.005 1051.081 14.031 1050.14 14.031 1048.831 C 14.031 1048.647 14.06 1048.348 13.778 1047.874 C 13.496 1047.402 13.023 1047.44 12.18 1047.092 C 11.341 1046.748 11.42 1046.782 11.314 1046.375 C 11.205 1045.965 11.276 1045.696 11.612 1044.946 C 11.635 1044.897 11.638 1044.852 11.657 1044.803 C 11.848 1044.96 12.012 1045.035 12.332 1045.278 C 12.652 1045.52 12.793 1045.622 13.138 1045.944 C 13.489 1046.269 13.562 1046.321 13.787 1046.39 C 14.014 1046.454 14.201 1046.408 14.34 1046.344 C 14.461 1046.286 14.597 1046.148 14.8 1045.937 C 14.993 1045.739 15.196 1045.495 15.35 1045.27 C 15.621 1044.825 15.928 1044.27 15.972 1044.016 C 16.021 1043.759 16.007 1043.737 15.908 1043.605 C 15.816 1043.468 15.563 1043.419 15.444 1043.43 C 15.327 1043.441 15.235 1043.46 15.114 1043.642 C 14.936 1043.91 14.954 1043.895 14.773 1044.224 C 14.566 1044.605 14.325 1044.96 14.134 1045.093 C 13.947 1045.233 13.969 1045.247 13.778 1045.083 C 13.595 1044.922 13.188 1044.519 12.984 1044.318 C 12.779 1044.114 12.21 1043.764 12.089 1043.665 C 11.967 1043.566 11.969 1043.502 11.967 1043.492 C 11.967 1043.481 11.967 1043.39 11.967 1043.385 L 12.376 1043.385 C 12.719 1043.385 12.995 1043.11 12.995 1042.766 L 13.175 1042.04 L 13.066 1041.22 C 13.066 1040.876 12.314 1040.267 11.804 1040.362 L 11.003 1040.457 Z" id="rect4604-0-7" bx:origin="0.455 0.5">
      <title>Runner</title>
    </path>
  </g>
</svg>